<svg class="icon" viewBox="0 0 1024 1024" version="1.1" xmlns="http://www.w3.org/2000/svg" p-id="2911" height="128" width="128"><path d="M577.815826 511.97824l432.549716-432.549716c18.186104-18.155384 18.186104-47.656603 0-65.811986s-47.656603-18.155384-65.811986 0l-432.585556 432.549716L79.459244 13.616538c-18.191224-18.155384-47.661723-18.155384-65.842706 0-18.155384 18.155384-18.155384 47.656603 0 65.811986l432.580436 432.549716-432.554836 432.554836a46.550691 46.550691 0 0 0 65.817106 65.842706l432.518996-432.549716 432.585556 432.549716c9.072572 9.077692 20.986723 13.619098 32.890633 13.619098s23.843661-4.541406 32.921353-13.619098a46.550691 46.550691 0 0 0 0-65.842706l-432.559956-432.554836z m0 0" p-id="2912"></path></svg>