<svg class="icon" viewBox="0 0 1024 1024" version="1.1" xmlns="http://www.w3.org/2000/svg" p-id="3436" height="128" width="128"><path d="M873.92064 5.248c74.56 0 135.232 60.8 135.488 135.36v516.864a135.552 135.552 0 0 1-135.36 135.488H357.18464a134.656 134.656 0 0 1-95.808-39.68 134.656 134.656 0 0 1-39.68-95.808V140.608A135.488 135.488 0 0 1 357.12064 5.248h516.864z m-22.784 105.024H379.96864a52.736 52.736 0 0 0-37.568 15.616 52.864 52.864 0 0 0-15.552 37.76h-0.128v471.104c0.064 29.44 23.936 53.12 53.248 53.12h471.296c14.272 0 27.52-5.376 37.568-15.488a52.736 52.736 0 0 0 15.552-35.328l-0.128-0.128V163.52a52.928 52.928 0 0 0-53.12-53.248z" fill="#3163F0" p-id="3437"></path><path d="M180.86464 210.048v105.024h-22.592a52.736 52.736 0 0 0-37.632 15.616 52.864 52.864 0 0 0-15.488 37.76H104.96064v471.104c0 29.44 23.872 53.12 53.248 53.12h471.296c14.208 0 27.52-5.376 37.568-15.488a52.736 52.736 0 0 0 15.552-35.328l-0.128-0.128-0.064-4.48h105.152v24.96a135.552 135.552 0 0 1-135.296 135.552H135.48864a134.656 134.656 0 0 1-95.808-39.68A134.656 134.656 0 0 1 0.00064 862.272V345.408a135.488 135.488 0 0 1 135.36-135.36h45.504z" fill="#3163F0" p-id="3438"></path><path d="M606.78464 171.52a52.48 52.48 0 0 1 52.544 52.48v116.672l116.672 0.064a52.48 52.48 0 0 1 0 105.024h-116.736l0.064 116.736a52.48 52.48 0 1 1-105.024 0V445.696l-116.672 0.064a52.48 52.48 0 0 1 0-104.96l116.608-0.128 0.064-116.608a52.48 52.48 0 0 1 52.48-52.48z" fill="#2D5AFA" p-id="3439"></path></svg>