<?xml version="1.0" encoding="utf-8"?>
<svg version="1.1" xmlns:xlink="http://www.w3.org/1999/xlink" width="20px" height="20px" xmlns="http://www.w3.org/2000/svg">
  <g transform="matrix(1 0 0 1 -825 -509 )">
    <path d="M 835 509  C 840.6 509  845 513.4  845 519  C 845 524.6  840.6 529  835 529  C 829.4 529  825 524.6  825 519  C 825 513.4  829.4 509  835 509  Z " fill-rule="nonzero" fill="#ffffff" stroke="none" />
    <path d="M 835 509.5  C 840.32 509.5  844.5 513.68  844.5 519  C 844.5 524.32  840.32 528.5  835 528.5  C 829.68 528.5  825.5 524.32  825.5 519  C 825.5 513.68  829.68 509.5  835 509.5  Z " stroke-width="1" stroke="#797979" fill="none" />
  </g>
</svg>