<svg class="icon" viewBox="0 0 1024 1024" version="1.1" xmlns="http://www.w3.org/2000/svg" p-id="2515" height="128" width="128"><path d="M292.7616 513.4336a43.42784 43.42784 0 0 0-43.43808-43.43808H43.52a43.42784 43.42784 0 0 0-43.43808 43.44832 43.42784 43.42784 0 0 0 43.43808 43.43808h205.80352a43.42784 43.42784 0 0 0 43.43808-43.43808z m687.7184-43.43808H774.67648a43.42784 43.42784 0 0 0-43.43808 43.44832 43.42784 43.42784 0 0 0 43.43808 43.43808H980.48a43.42784 43.42784 0 0 0 43.43808-43.43808c0.12288-24.00256-19.43552-43.44832-43.43808-43.44832zM512.48128 745.27744a43.42784 43.42784 0 0 0-43.43808 43.43808v191.2832a43.42784 43.42784 0 0 0 43.43808 43.43808 43.42784 43.42784 0 0 0 43.43808-43.43808V788.8384a43.53024 43.53024 0 0 0-43.43808-43.56096z m0-744.83712a43.42784 43.42784 0 0 0-43.43808 43.43808v205.80352a43.42784 43.42784 0 0 0 43.43808 43.43808 43.42784 43.42784 0 0 0 43.43808-43.43808V43.8784A43.42784 43.42784 0 0 0 512.48128 0.44032zM294.56384 666.3168L149.12512 811.75552a43.52 43.52 0 0 0 0 61.44 43.14112 43.14112 0 0 0 30.72 12.72832c11.1616 0 22.19008-4.1984 30.72-12.72832L356.10624 727.6544a43.52 43.52 0 0 0 0-61.44 43.56096 43.56096 0 0 0-61.55264 0.11264z m401.5104-296.63232c11.1616 0 22.21056-4.1984 30.72-12.72832l145.5616-145.55136a43.52 43.52 0 0 0 0-61.44 43.52 43.52 0 0 0-61.44 0L665.36448 295.40352a43.52 43.52 0 0 0 0 61.44 43.264 43.264 0 0 0 30.72 12.84096z m42.12736 306.71872a43.52 43.52 0 0 0-61.44 0 43.52 43.52 0 0 0 0 61.44l135.23968 135.35232a43.14112 43.14112 0 0 0 30.72 12.72832c11.1616 0 22.20032-4.1984 30.72-12.72832a43.52 43.52 0 0 0 0-61.44L738.2016 676.4032zM210.55488 151.16288a43.52 43.52 0 0 0-61.44 0 43.52 43.52 0 0 0 0 61.44l145.5616 145.5616a43.14112 43.14112 0 0 0 30.72 12.71808c11.1616 0 22.20032-4.1984 30.72-12.71808a43.52 43.52 0 0 0 0-61.44L210.55488 151.16288z" fill="#333333" p-id="2516"></path></svg>