<svg class="icon" viewBox="0 0 1027 1024" version="1.1" xmlns="http://www.w3.org/2000/svg" p-id="2615" height="128" width="128"><path d="M153.6 1017.6c-6.4 0-19.2-6.4-25.6-12.8L12.8 896c-12.8-12.8-12.8-38.4 0-51.2l345.6-345.6c-64-134.4-38.4-294.4 70.4-396.8 140.8-140.8 352-140.8 492.8 0s140.8 358.4 0 492.8c-108.8 102.4-268.8 128-396.8 64l-25.6 25.6 6.4 76.8c0 6.4 0 19.2-6.4 25.6-6.4 6.4-12.8 12.8-25.6 12.8l-83.2 6.4v76.8c0 12.8-6.4 19.2-12.8 25.6-6.4 6.4-19.2 6.4-25.6 6.4l-70.4-12.8-96 96c-12.8 19.2-25.6 19.2-32 19.2z m-70.4-147.2l64 64 83.2-83.2c6.4-6.4 19.2-12.8 32-12.8l57.6 6.4v-70.4c0-19.2 12.8-32 32-32l76.8-6.4-6.4-57.6c0-12.8 0-19.2 12.8-32l57.6-57.6c12.8-12.8 32-12.8 44.8-6.4 108.8 64 243.2 44.8 339.2-38.4 51.2-51.2 83.2-121.6 83.2-198.4 0-70.4-32-140.8-83.2-198.4-51.2-51.2-121.6-83.2-198.4-83.2s-147.2 38.4-204.8 89.6C384 243.2 364.8 377.6 428.8 486.4c6.4 12.8 6.4 32-6.4 44.8l-339.2 339.2z" fill="#333333" p-id="2616"></path><path d="M748.8 486.4c-6.4 0-19.2-6.4-25.6-12.8L544 300.8c-12.8-12.8-12.8-38.4 0-51.2l89.6-89.6c12.8-12.8 38.4-12.8 51.2 0l179.2 179.2c12.8 12.8 12.8 38.4 0 51.2l-89.6 89.6c-6.4 6.4-19.2 6.4-25.6 6.4z m-128-211.2l128 128 38.4-38.4-128-128-38.4 38.4z" fill="#333333" p-id="2617"></path></svg>