<svg class="icon" viewBox="0 0 1024 1024" version="1.1" xmlns="http://www.w3.org/2000/svg" p-id="4070" height="128" width="128"><path d="M793.45159912 635.36135864c-54.11865234 0-98.36691284 28.96929932-118.97369384 73.94018555L412.88656617 598.03118896c15.25836182-23.64230347 23.64147949-52.61077881 23.64147948-83.85095214 0-12.94546508-1.52764893-25.91235352-4.58377075-38.11541748l167.02212525-129.58566285c22.13525391 16.76623536 50.36132813 26.67700195 81.62210083 26.67700195 75.50985718 0 131.94140625-56.40930176 131.94140625-131.09188842 0-74.70401001-56.45214844-131.11413575-131.94140626-131.11413575-75.50985718 0-131.17675781 56.40930176-131.17675781 131.11413575 0 19.05770874 3.81994629 36.58776855 9.91076661 51.825531L405.24584961 412.03540039c-30.49694824-45.7347107-80.83685303-77.76013183-138.03222656-77.76013183A168.89007568 168.89007568 0 0 0 97.90167237 503.50564575a168.89007568 168.89007568 0 0 0 169.3144226 169.20812988c35.08071899 0 67.8699646-9.12634277 94.56756592-25.89175415l300.51260376 128.03576661c3.81994629 70.88406372 58.72302246 123.47341919 131.15615845 123.47341918 75.53128052 0 131.19818115-56.38870239 131.19818115-131.09188842 0-74.70401001-56.45214844-131.87713623-131.17675782-131.87713623z" fill="#999999" p-id="4071"></path></svg>