<svg class="icon" viewBox="0 0 1025 1024" version="1.1" xmlns="http://www.w3.org/2000/svg" p-id="2885" height="128" width="128"><path d="M1019.438251 682.666667c12.6464-36.488533 0.324267-79.1552-37.6832-130.423467-18.961067-25.582933-50.449067-59.409067-92.7232-75.246933-14.848-5.563733-30.378667-5.5808-46.848-5.614933-11.502933-0.017067-23.415467-0.034133-34.986667-2.1504-13.806933-2.525867-29.320533-13.7216-37.700267-27.2384-5.802667-9.335467-7.594667-18.670933-5.205333-27.016533 5.614933-19.5584 19.029333-41.8816 29.815467-59.818667l6.6048-11.008c10.615467-17.595733 20.6336-34.235733 25.207467-54.9376 4.727467-21.367467 1.1776-38.314667-2.935467-57.941333-0.904533-4.352-1.8432-8.8064-2.7136-13.431467-2.542933-13.6192-2.133333-27.835733-1.723733-41.608533 0.341333-11.6736 0.699733-23.773867-0.8192-35.140267-3.754667-28.0576-26.794667-56.797867-45.4656-75.963733-33.1264-34.030933-76.407467-50.8416-121.736533-47.5136-43.400533-2.628267-103.850667 2.6624-147.4048 43.588267-9.028267 8.482133-38.8608 38.792533-43.793067 72.738133l-0.426667 2.986667-3.003733-0.034133c-87.876267-1.2288-184.490667 40.362667-201.6768 134.980267-3.4816 19.165867-4.693333 39.560533-5.870933 59.272533-0.597333 10.0352-1.194667 20.0192-2.065067 29.815467-1.4336 15.957333-3.413333 25.634133-8.209067 39.816533-10.888533 32.256-7.082667 69.256533 10.427733 101.563733 3.447467 6.365867 7.8848 12.305067 12.168533 18.0736 5.051733 6.775467 10.274133 13.7728 14.062933 21.640533 4.420267 9.130667 7.953067 18.944 11.383467 28.416 1.706667 4.727467 3.396267 9.4208 5.205333 14.0288 1.0752 2.781867 2.645333 5.9904 4.3008 9.335467 3.771733 7.714133 8.0384 16.452267 8.4992 23.876267 1.194667 19.626667-20.394667 50.039467-32.238933 61.969067-13.687467 13.7728-35.037867 13.226667-53.845333 12.782933-3.413333-0.085333-6.7072-0.170667-9.8816-0.170667-2.082133 0-4.096 0.034133-6.058667 0.119467-3.0208 0.136533-6.024533 0.221867-9.028267 0.3072-11.4688 0.3072-22.306133 0.580267-32.887467 4.437333-25.019733 9.079467-46.08 28.910933-65.109333 48.964267-50.961067 53.725867-102.382933 131.8912-93.866667 190.139733 3.7376 25.565867 18.756267 46.062933 44.629333 60.945067 13.7216 7.8848 28.228267 9.028267 40.618667 9.096533l0.955733 0.136533c3.1744 0.938667 9.847467 0.290133 14.711467-0.187733l3.515733-0.324267c3.3792-0.1024 6.570667-0.170667 9.813333-0.170667l671.931733 0c38.365867-6.775467 70.724267-35.976533 79.9232-72.584533 18.312533-72.96-46.762667-152.593067-67.157333-175.274667-3.413333-3.805867-7.048533-7.645867-10.888533-11.4688l-5.870933-5.870933 164.181333 0C980.696917 735.112533 1009.129984 712.362667 1019.438251 682.666667zM800.626517 917.486933c-2.935467 9.506133-10.205867 15.650133-21.623467 18.261333-5.888 1.348267-12.3392 1.774933-18.756267 1.774933-4.983467 0-9.949867-0.256-14.609067-0.546133l-1.911467-0.119467L743.145984 935.765333c-0.187733 0.017067-0.392533 0.034133-0.5632 0.0512-1.2288 0.1024-2.628267 0.273067-3.9424-0.1536-8.004267-2.491733-20.002133-1.518933-30.600533-0.6656-5.205333 0.426667-10.1376 0.836267-14.4384 0.836267L99.920384 935.8336c-0.887467 0-2.4576-0.1536-4.317867-0.341333-2.645333-0.256-8.6528-0.853333-10.666667-0.375467l-1.041067 1.553067-2.628267-0.273067c-0.938667-0.256-1.809067-0.5632-2.542933-0.955733-5.4272-2.7648-8.823467-7.202133-10.069333-13.1584-3.9936-19.063467 14.336-53.572267 54.442667-102.570667l0.853333-1.024c1.962667-2.389333 3.959467-4.898133 6.007467-7.4752 13.397333-16.776533 28.586667-35.805867 47.223467-44.868267 7.2192-3.515733 14.2848-3.669333 21.742933-3.84 1.723733-0.034133 3.4816-0.068267 5.2736-0.1536 7.048533-0.341333 14.455467-0.290133 21.981867-0.3072 17.800533 0.068267 36.215467 0.085333 52.0192-4.608 27.272533-8.123733 48.657067-33.5872 58.965333-48.042667 13.824-19.3536 24.951467-43.246933 33.1264-71.0144l1.450667-4.8128c3.089067-10.103467 5.341867-17.425067 2.440533-27.067733-6.3488-21.0432-15.2064-42.0864-23.773867-62.446933-4.334933-10.308267-8.6528-20.565333-12.663467-30.8224-3.584-9.198933-6.075733-15.189333-11.844267-22.101333-15.394133-18.432-29.9008-38.536533-23.722667-63.6928 1.399467-5.6832 3.310933-10.120533 5.154133-14.421333 2.474667-5.7344 4.590933-10.683733 5.2224-17.732267l4.573867-51.285333c0.512-5.751467 0.8192-11.639467 1.1264-17.5616 1.058133-20.6848 2.1504-42.069333 12.168533-60.535467 13.3632-24.661333 33.928533-42.734933 57.941333-50.875733 12.817067-4.334933 27.136-6.877867 45.090133-7.970133 2.816-0.1024 7.748267 0.341333 14.08 0.989867 7.9872 0.802133 22.903467 2.304 25.634133 0.836267l1.058133-0.580267 1.365333 0.085333c16.042667 2.6624 30.958933 9.608533 44.3392 20.6336 13.329067 10.973867 44.4416 40.448 45.568 76.8512l2.304 74.9568c0.290133 9.472 2.2528 18.261333 4.1472 26.7776 3.396267 15.2576 6.912 31.061333 0.4608 50.107733-3.549867 10.496-9.096533 19.626667-14.4896 28.4672-3.208533 5.256533-6.519467 10.7008-9.3184 16.315733-7.168 14.353067-14.097067 29.166933-20.804267 43.4688-3.413333 7.287467-6.826667 14.574933-10.274133 21.8112-1.9968 4.215467-4.846933 9.0624-7.8336 14.165333-6.331733 10.820267-13.5168 23.074133-14.523733 32.3584-1.0752 10.001067 4.693333 25.361067 8.9088 36.590933 0.8192 2.167467 1.570133 4.181333 2.218667 5.9904 6.2464 17.5104 14.4896 33.2288 24.507733 46.711467 22.254933 29.969067 55.022933 51.2512 85.504 55.517867 13.277867 1.877333 27.272533 2.304 40.789333 2.730667 6.7584 0.2048 13.482667 0.426667 20.1216 0.802133 30.702933 1.7408 55.1936 24.490667 70.929067 41.454933C758.301184 815.069867 811.344384 882.688 800.626517 917.486933zM952.041984 660.701867c-3.072 5.717333-9.250133 9.0624-18.363733 9.9328-6.792533 0.648533-13.738667 0.8704-20.6848 0.8704-6.9632 0-13.943467-0.221867-20.804267-0.426667-6.792533-0.2048-13.533867-0.426667-20.1728-0.426667l-278.186667 0-1.006933-1.041067c-12.987733-13.312-26.043733-33.160533-23.671467-48.913067 1.314133-8.738133 7.099733-18.773333 12.202667-27.630933 2.269867-3.925333 4.420267-7.645867 5.973333-10.922667 11.008-23.1424 22.818133-45.960533 36.078933-69.802667 12.509867-22.528 20.0704-45.568 22.4768-68.471467 1.809067-17.3056-1.4848-32.392533-4.9664-48.366933-1.4848-6.826667-3.037867-13.892267-4.181333-21.230933-2.594133-16.571733-2.304-33.792-2.013867-50.466133 0.221867-13.192533 0.443733-26.845867-0.785067-39.867733-2.389333-25.173333-19.456-55.9616-49.408-89.053867-16.042667-17.749333-34.594133-31.778133-55.108267-41.6768l-2.2528-1.0752 0.341333-2.474667c0.256-1.8432 0.529067-3.652267 0.938667-5.393067 6.8096-29.303467 40.123733-48.503467 68.1984-53.9648 9.181867-1.774933 19.165867-2.850133 29.661867-3.157333 1.6896-0.238933 5.000533 0.324267 9.130667 0.768 5.5296 0.631467 17.032533 1.8944 19.3024 0.938667l0.989867-0.6144 1.041067 0.1536c3.089067 0.256 7.168 0.273067 11.127467 0.238933 5.7344-0.0512 11.127467-0.017067 14.045867 0.7168 11.52 2.8672 22.545067 8.618667 32.802133 17.117867 6.946133 5.751467 29.883733 26.248533 34.321067 48.9472 1.9968 10.205867 1.809067 21.486933 1.621333 32.375467-0.085333 5.188267-0.170667 10.2912-0.017067 15.121067 0.119467 3.4304 0.017067 7.1168-0.085333 10.888533-0.2048 7.5264-0.426667 15.291733 1.092267 21.674667 0.836267 3.515733 2.0992 6.570667 3.464533 9.8304 2.389333 5.7344 4.864 11.656533 4.488533 19.677867-0.443733 10.018133-3.925333 20.770133-10.3424 31.965867l-3.822933 6.673067c-10.0864 17.595733-20.5312 35.805867-30.037333 54.528-2.491733 4.898133-5.495467 9.9328-8.686933 15.2576-9.591467 16.008533-20.445867 34.133333-16.6912 50.312533 12.100267 52.036267 41.335467 90.248533 82.346667 107.5712 19.882667 8.413867 41.864533 9.079467 63.146667 9.710933 5.4784 0.170667 10.973867 0.341333 16.418133 0.6144 47.854933 2.542933 83.080533 62.395733 92.7232 80.6912C950.591317 633.634133 957.861717 649.898667 952.041984 660.701867z" p-id="2886"></path></svg>