<svg class="icon" viewBox="0 0 1024 1024" version="1.1" xmlns="http://www.w3.org/2000/svg" p-id="5273" height="128" width="128"><path d="M854.4 800.896l0.64-0.896A445.824 445.824 0 0 0 960 512a446.272 446.272 0 0 0-104.768-288l-0.704-0.832-3.2-3.648-1.28-1.408-4.032-4.736-0.128-0.064-4.608-5.12-0.064-0.064c-3.2-3.456-6.4-6.848-9.728-10.112l-0.064-0.128-4.8-4.8-0.32-0.256-4.48-4.352-1.6-1.472-3.008-2.816-1.024-1.024A445.824 445.824 0 0 0 512 64a446.272 446.272 0 0 0-304.32 119.168l-0.96 1.024-3.008 2.88-1.6 1.536-4.48 4.288-0.32 0.32-4.8 4.8-0.128 0.064-9.664 10.112-0.128 0.128a211.776 211.776 0 0 0-4.608 5.12H177.92a91.904 91.904 0 0 0-4.096 4.736l-1.28 1.408c-1.024 1.216-2.048 2.56-3.2 3.712-0.128 0.32-0.448 0.512-0.64 0.832A446.272 446.272 0 0 0 64 512c0 109.696 39.424 210.112 104.832 288l0.64 0.896 3.136 3.712 1.216 1.408 4.096 4.672 0.064 0.192c1.536 1.728 3.008 3.392 4.608 4.992l0.128 0.128 9.6 10.112 0.064 0.064 4.736 4.736 0.256 0.32A447.168 447.168 0 0 0 512 960a446.272 446.272 0 0 0 314.24-128.768l0.384-0.32c1.6-1.6 3.2-3.136 4.672-4.736l0.128-0.064a302.72 302.72 0 0 0 9.6-10.112l0.064-0.128c1.536-1.664 3.136-3.264 4.608-4.992 0-0.064 0.128-0.064 0.128-0.192 1.408-1.472 2.752-3.072 4.096-4.672l1.152-1.408c1.28-1.28 2.304-2.56 3.328-3.712z m4.096-142.592c-13.824 32.64-32 62.784-54.208 90.24a444.096 444.096 0 0 0-81.472-55.936c11.584-46.912 18.752-98.432 20.672-152.576h143.488a373.888 373.888 0 0 1-28.48 118.272z m28.48-174.272h-143.488a747.584 747.584 0 0 0-20.672-152.64 444.096 444.096 0 0 0 81.472-55.872 373.888 373.888 0 0 1 82.688 208.512z m-228.672-318.528a373.76 373.76 0 0 1 107.584 69.184c-18.496 15.808-38.4 29.696-59.392 41.792-15.68-44.992-35.84-84.096-59.2-115.392 3.712 1.408 7.424 2.944 11.008 4.416zM567.68 866.112a113.152 113.152 0 0 1-27.648 16.384v-185.472a389.12 389.12 0 0 1 115.648 26.176c-8.32 24.576-17.92 47.36-28.992 67.84-17.408 32.384-37.76 58.24-59.008 75.072z m59.008-633.088c11.008 20.544 20.736 43.264 28.992 67.776a389.12 389.12 0 0 1-115.648 26.24V141.504c9.152 3.712 18.496 9.152 27.648 16.448 21.248 16.64 41.6 42.56 59.008 75.008z m-86.656 407.872V540.032h147.456c-1.6 44.16-7.04 87.04-16.32 127.744l-0.256 1.28a444.992 444.992 0 0 0-130.944-28.16z m0-156.864V383.104a444.992 444.992 0 0 0 130.88-28.16l0.32 1.28c9.152 40.704 14.72 83.456 16.256 127.808H539.968z m-56.064 56v100.864a444.992 444.992 0 0 0-130.88 28.16l-0.32-1.28a693.44 693.44 0 0 1-16.256-127.744h147.456z m-147.456-56.064c1.6-44.16 7.04-87.04 16.32-127.744l0.256-1.28a444.352 444.352 0 0 0 130.88 28.16v100.928H336.512z m147.456 213.056v185.344a111.872 111.872 0 0 1-27.648-16.384c-21.248-16.64-41.728-42.688-59.136-75.072a451.84 451.84 0 0 1-28.992-67.84 390.272 390.272 0 0 1 115.84-26.048z m0-370.048A389.12 389.12 0 0 1 368.32 300.8c8.32-24.576 17.92-47.36 28.992-67.84 17.408-32.384 37.76-58.368 59.072-75.072 9.216-7.168 18.432-12.672 27.712-16.384v185.472h-0.128zM365.76 165.504c3.712-1.472 7.296-3.008 11.008-4.416-23.424 31.36-43.52 70.4-59.2 115.392a387.648 387.648 0 0 1-59.392-41.792 373.76 373.76 0 0 1 107.584-69.184zM165.504 365.696c13.824-32.64 32-62.784 54.208-90.24 24.896 21.568 52.16 40.32 81.472 55.936a747.584 747.584 0 0 0-20.672 152.64H136.96c2.944-40.96 12.544-80.64 28.48-118.336zM136.96 539.968h143.488c1.92 54.208 9.088 105.728 20.672 152.64a444.096 444.096 0 0 0-81.472 55.872A373.888 373.888 0 0 1 136.96 539.968z m228.672 318.528a373.76 373.76 0 0 1-107.584-69.184c18.496-15.808 38.4-29.696 59.392-41.792 15.68 44.992 35.84 84.096 59.2 115.392a359.936 359.936 0 0 1-11.008-4.416z m292.608 0c-3.712 1.536-7.296 3.008-11.008 4.416 23.424-31.36 43.52-70.4 59.2-115.392 20.992 11.968 40.96 25.984 59.392 41.792a373.76 373.76 0 0 1-107.584 69.184z" fill="#7D849C" p-id="5274"></path></svg>