<svg class="icon" viewBox="0 0 1024 1024" version="1.1" xmlns="http://www.w3.org/2000/svg" p-id="7221" height="128" width="128"><path d="M524.91264 885.76c-206.42304 0-373.76-167.33696-373.76-373.76s167.33696-373.76 373.76-373.76 373.76 167.33696 373.76 373.76-167.33696 373.76-373.76 373.76z m0-30.72c189.45536 0 343.04-153.58464 343.04-343.04s-153.58464-343.04-343.04-343.04-343.04 153.58464-343.04 343.04 153.58464 343.04 343.04 343.04zM820.97152 299.47904l-11.904-28.31872c50.048-21.02784 86.15424-21.02784 105.75872 4.89472 18.2016 24.07936-13.66528 80.3584-73.37984 144.44544-65.47456 70.26688-153.57952 136.86272-251.2128 184.58624-98.25792 48.03072-208.5376 83.64544-307.38432 102.19008-93.48608 17.536-159.96928 17.75104-174.8992-5.82144-18.59584-29.36832 3.97824-66.59584 60.54912-114.80064l19.92704 23.38304c-44.94336 38.29248-60.83072 64.21504-54.67136 74.73664-0.3328-0.54272-0.256-0.51712 0.0512-0.3584 1.51552 0.75776 3.8912 1.536 7.01952 2.22208 7.32672 1.60256 17.7152 2.44736 30.56128 2.4064 27.47904-0.08704 64.3072-4.17792 105.79968-11.96032 96.2048-18.05312 203.8528-52.8128 299.55584-99.59424 94.16192-46.0288 179.2512-110.34624 242.2272-177.93024 26.1632-28.07808 46.68928-54.9888 59.008-76.7488 5.55008-9.8048 9.16992-18.1248 10.71104-24.2944 0.5376-2.14016 0.77312-3.82976 0.77824-4.97152-9.1136-10.24512-31.17056-9.74848-68.49536 5.9392z" p-id="7222"></path></svg>