<svg class="icon" viewBox="0 0 1024 1024" version="1.1" xmlns="http://www.w3.org/2000/svg" p-id="7886" height="128" width="128"><path d="M870.466553 1024H153.533447a153.738226 153.738226 0 0 1-153.482252-153.584642V153.584642c0-84.676332 68.908309-153.584642 153.482252-153.584642h716.933106A153.738226 153.738226 0 0 1 1023.948805 153.584642v716.830716c0 84.676332-68.908309 153.584642-153.482252 153.584642z m-716.933106-972.70273A102.338566 102.338566 0 0 0 51.348465 153.584642v716.830716c0 56.416758 45.768223 102.287371 102.184982 102.287372h716.933106a102.338566 102.338566 0 0 0 102.184982-102.287372V153.584642a102.338566 102.338566 0 0 0-102.184982-102.287372H153.533447zM562.324568 256.025597A55.290471 55.290471 0 1 1 504.320768 308.193181a55.188081 55.188081 0 0 1 58.0038-52.167584zM425.531847 477.033897s106.741326-78.481752 141.656234-63.174483-12.286771 163.260474-15.716828 177.595041-33.788621 150.820118 39.010499 90.154184c0 0 36.39956-24.163984-15.716828 31.587241s-118.055394 73.515848-125.888212 31.587242a2358.138586 2358.138586 0 0 1 39.676033-267.698031c2.047795-14.129787-15.716828 0-15.716829 0s-51.194881 35.836416-62.969703 15.819219c-1.894211-3.225277 10.750925-13.105889 15.716829-15.819219z" p-id="7887"></path></svg>