<svg class="icon" viewBox="0 0 1024 1024" version="1.1" xmlns="http://www.w3.org/2000/svg" p-id="6697" height="128" width="128"><path d="M972.8 675.2c-38.4-3.2-67.2-32-67.2-70.4 0-12.8 3.2-22.4 6.4-32 9.6-19.2 3.2-44.8-16-57.6l-22.4-12.8-22.4-12.8c-19.2-12.8-44.8-6.4-57.6 12.8-12.8 19.2-35.2 32-57.6 32-25.6 0-44.8-12.8-57.6-32-12.8-19.2-38.4-25.6-57.6-12.8l-25.6 12.8-19.2 12.8c-19.2 12.8-25.6 35.2-16 57.6 6.4 9.6 6.4 19.2 6.4 32 0 38.4-28.8 67.2-67.2 70.4-22.4 3.2-38.4 19.2-38.4 44.8v54.4c0 22.4 19.2 41.6 38.4 44.8 35.2 3.2 64 32 64 70.4 0 12.8-3.2 22.4-6.4 32-9.6 19.2-3.2 44.8 16 57.6l44.8 25.6c19.2 12.8 44.8 6.4 57.6-12.8 12.8-19.2 35.2-32 57.6-32s44.8 12.8 57.6 32c12.8 19.2 38.4 25.6 57.6 12.8l44.8-25.6c19.2-12.8 25.6-35.2 16-54.4 0 0 0-3.2-3.2-3.2-3.2-9.6-6.4-16-6.4-25.6 0-38.4 28.8-67.2 64-70.4 22.4-3.2 38.4-19.2 38.4-44.8v-54.4c12.8-32-6.4-51.2-28.8-51.2zM838.4 780.8c-3.2 12.8-12.8 22.4-19.2 32-16 19.2-38.4 32-64 35.2-6.4 0-12.8 3.2-19.2 3.2-6.4 0-12.8 0-19.2-3.2-25.6-3.2-48-19.2-64-35.2-9.6-9.6-16-19.2-19.2-32-3.2-12.8-6.4-22.4-6.4-35.2 0-12.8 3.2-25.6 6.4-35.2 3.2-12.8 9.6-22.4 19.2-32 16-19.2 38.4-32 64-35.2 6.4 0 12.8-3.2 19.2-3.2 6.4 0 12.8 0 19.2 3.2 25.6 3.2 48 19.2 64 35.2 6.4 9.6 16 19.2 19.2 32 3.2 12.8 6.4 22.4 6.4 35.2 0 12.8-3.2 22.4-6.4 35.2z" fill="" p-id="6698"></path><path d="M441.6 828.8c-28.8-3.2-51.2-25.6-51.2-54.4v-64c0-28.8 22.4-51.2 48-54.4 35.2-3.2 64-25.6 76.8-54.4l-3.2-3.2c-6.4-6.4-12.8-16-16-22.4-3.2-6.4-3.2-16-3.2-22.4V528c0-12.8 6.4-25.6 12.8-32 3.2-12.8 12.8-25.6 25.6-32l16-9.6c3.2-6.4 6.4-16 9.6-22.4l9.6-28.8c3.2 0 9.6-3.2 12.8-6.4L592 384c3.2-6.4 6.4-12.8 9.6-22.4 3.2-9.6 3.2-19.2 3.2-28.8 0-9.6-3.2-16-6.4-22.4-3.2-6.4-6.4-12.8-12.8-19.2 0-22.4 0-44.8-3.2-67.2-3.2-19.2-6.4-41.6-12.8-60.8-6.4-22.4-16-41.6-28.8-60.8-12.8-16-25.6-32-38.4-41.6C496 44.8 480 38.4 464 32c-16-6.4-28.8-9.6-44.8-12.8-12.8-3.2-28.8-3.2-41.6-3.2S352 16 336 19.2c-12.8 0-28.8 6.4-44.8 12.8-12.8 6.4-28.8 12.8-41.6 22.4C236.8 67.2 224 80 211.2 96c-12.8 19.2-22.4 38.4-28.8 60.8-6.4 22.4-9.6 41.6-12.8 60.8-3.2 22.4-3.2 48-3.2 70.4-6.4 6.4-9.6 12.8-12.8 19.2-3.2 6.4-3.2 12.8-3.2 22.4 0 9.6 0 19.2 3.2 28.8 3.2 9.6 6.4 19.2 9.6 22.4 3.2 6.4 9.6 9.6 12.8 12.8 3.2 3.2 9.6 6.4 12.8 6.4l9.6 28.8c3.2 6.4 6.4 16 9.6 22.4 3.2 6.4 9.6 12.8 12.8 19.2 9.6 9.6 19.2 16 28.8 25.6 9.6 9.6 12.8 19.2 16 32v25.6c0 6.4 0 16-3.2 22.4-3.2 6.4-6.4 16-16 22.4-6.4 6.4-16 16-28.8 22.4-9.6 6.4-22.4 12.8-35.2 16-12.8 3.2-25.6 9.6-41.6 12.8-12.8 3.2-28.8 6.4-41.6 12.8-12.8 3.2-25.6 9.6-35.2 16-9.6 6.4-19.2 16-28.8 25.6-6.4 9.6-12.8 22.4-16 38.4-6.4 38.4-6.4 70.4-3.2 96 3.2 25.6 9.6 38.4 16 44.8 3.2 3.2 12.8 6.4 25.6 9.6 12.8 3.2 32 6.4 51.2 9.6 19.2 3.2 41.6 6.4 67.2 9.6 25.6 3.2 48 6.4 73.6 6.4 25.6 3.2 48 3.2 70.4 6.4 22.4 0 41.6 3.2 60.8 3.2 16 0 38.4 0 60.8-3.2 22.4 0 48-3.2 70.4-6.4h12.8c-3.2-51.2-38.4-89.6-83.2-89.6z" fill="" p-id="6699"></path></svg>