<svg class="icon" viewBox="0 0 1152 1024" version="1.1" xmlns="http://www.w3.org/2000/svg" p-id="2807" height="128" width="128"><path d="M1013.504 581.12a438.656 438.656 0 0 0-267.264-420.352l-5.12-2.112A168.064 168.064 0 0 0 575.488 18.56a168.128 168.128 0 0 0-165.504 140.16c-1.664 0.64-3.392 1.28-4.992 2.048a437.824 437.824 0 0 0-267.328 419.456 167.936 167.936 0 0 0 84.032 312.96c18.496 0.064 36.8-2.944 54.272-8.96a437.696 437.696 0 0 0 598.784 0.384 168 168 0 0 0 220.992-159.168c0-59.264-31.36-114.112-82.304-144.32zM575.552 90.688a95.808 95.808 0 1 1 0 191.68 95.808 95.808 0 0 1 0-191.68z m-449.536 634.88a95.808 95.808 0 1 1 191.616 0 95.808 95.808 0 0 1-191.616 0z m449.6 205.248a363.392 363.392 0 0 1-235.84-86.08 167.296 167.296 0 0 0 49.792-119.168A168 168 0 0 0 209.536 558.08a367.04 367.04 0 0 1 205.44-322.88 168.128 168.128 0 0 0 160.64 119.04c75.52 0 139.584-50.24 160.512-119.04a366.976 366.976 0 0 1 205.632 323.008 168 168 0 0 0-181.568 167.232c0 45.12 18.176 88.32 50.496 119.808a363.456 363.456 0 0 1-235.072 85.44z m352.384-109.44a95.808 95.808 0 1 1 0-191.616 95.808 95.808 0 0 1 0 191.616z" p-id="2808"></path></svg>