<svg class="icon" viewBox="0 0 1142 1024" version="1.1" xmlns="http://www.w3.org/2000/svg" p-id="4080" height="128" width="128"><path d="M874.544762 1024h-646.095238A228.937143 228.937143 0 0 1 0 795.306667v-566.857143A228.937143 228.937143 0 0 1 228.693333 0h646.095238A228.937143 228.937143 0 0 1 1103.238095 228.693333V286.47619a30.47619 30.47619 0 0 1-60.952381 0v-57.782857A167.92381 167.92381 0 0 0 874.544762 60.952381h-646.095238A167.92381 167.92381 0 0 0 60.952381 228.693333v566.857143A167.92381 167.92381 0 0 0 228.693333 963.047619h646.095238A167.92381 167.92381 0 0 0 1042.285714 795.306667V737.52381a30.47619 30.47619 0 0 1 60.952381 0v57.782857A228.937143 228.937143 0 0 1 874.544762 1024zM1051.550476 683.76381h-241.188571a167.801905 167.801905 0 0 1-167.619048-167.619048v-8.289524a167.801905 167.801905 0 0 1 167.619048-167.619048h239.786666A92.830476 92.830476 0 0 1 1142.857143 432.761905v159.695238a91.428571 91.428571 0 0 1-91.306667 91.306667z m-241.188571-282.575239a106.788571 106.788571 0 0 0-106.666667 106.666667v8.228572a106.788571 106.788571 0 0 0 106.666667 106.666666h241.188571a30.47619 30.47619 0 0 0 30.476191-30.47619V432.761905a31.817143 31.817143 0 0 0-31.756191-31.756191z" p-id="4081"></path></svg>