<svg class="icon" viewBox="0 0 1024 1024" version="1.1" xmlns="http://www.w3.org/2000/svg" p-id="6281" height="128" width="128"><path d="M895 129v576H319V129h576m0-64H319c-35.3 0-64 28.7-64 64v576c0 35.3 28.7 64 64 64h576c35.3 0 64-28.7 64-64V129c0-35.3-28.7-64-64-64zM703 897H127V321h64v-64h-64c-35.3 0-64 28.7-64 64v576c0 35.3 28.7 64 64 64h576c35.3 0 64-28.7 64-64v-64h-64v64zM735 385H479c-17.7 0-32 14.3-32 32s14.3 32 32 32h256c17.7 0 32-14.3 32-32s-14.3-32-32-32zM607 257c-17.7 0-32 14.3-32 32v256c0 17.7 14.3 32 32 32s32-14.3 32-32V289c0-17.7-14.3-32-32-32z" p-id="6282"></path></svg>