<?xml version="1.0" encoding="utf-8"?>
<svg version="1.1" xmlns:xlink="http://www.w3.org/1999/xlink" width="30px" height="30px" xmlns="http://www.w3.org/2000/svg">
  <g transform="matrix(1 0 0 1 -85 -287 )">
    <path d="M 100 287  C 108.4 287  115 293.6  115 302  C 115 310.4  108.4 317  100 317  C 91.6 317  85 310.4  85 302  C 85 293.6  91.6 287  100 287  Z " fill-rule="nonzero" fill="#ffffff" stroke="none" />
    <path d="M 100 287.5  C 108.12 287.5  114.5 293.88  114.5 302  C 114.5 310.12  108.12 316.5  100 316.5  C 91.88 316.5  85.5 310.12  85.5 302  C 85.5 293.88  91.88 287.5  100 287.5  Z " stroke-width="1" stroke="#797979" fill="none" />
  </g>
</svg>