<svg class="icon" viewBox="0 0 1987 1024" version="1.1" xmlns="http://www.w3.org/2000/svg" p-id="2209" height="128" width="128"><path d="M1659.000471 420.864l-327.68-259.855059a90.955294 90.955294 0 0 1-15.299765-126.373647c30.177882-39.152941 85.955765-46.140235 124.566588-15.540706l477.244235 378.398118A185.705412 185.705412 0 0 1 1987.764706 543.081412c0 49.754353-39.755294 90.112-88.786824 90.112H88.726588C39.755294 633.193412 0 592.835765 0 543.141647 0 493.327059 39.755294 452.969412 88.726588 452.969412h1559.371294a18.070588 18.070588 0 1 0 10.902589-32.225883M0 902.625882c0-49.754353 39.755294-90.112 88.786824-90.112h1810.251294c49.031529 0 88.726588 40.357647 88.726588 90.051765 0 49.754353-39.755294 90.112-88.726588 90.112H88.786824C29.575529 992.617412 0 962.56 0 902.565647z" fill="#D9D9D9" p-id="2210"></path></svg>