<svg class="icon" viewBox="0 0 1024 1024" version="1.1" xmlns="http://www.w3.org/2000/svg" p-id="8918" height="128" width="128"><path d="M298.40052491 611.75851141c0 0 0 0 0 0 39.76449463 0 71.99960947-32.23511483 71.99960946-71.99960947 0-39.76449463-32.23511483-71.99960947-71.99960945-71.99960947 0 0 0 0 0 0-39.76449463 0-71.99960947 32.23511483-71.99960949 71.99960948 0 39.76449463 32.23511483 71.99960947 71.99960948 71.99960946 0 0 0 0 0 0z" fill="#333333" p-id="8919"></path><path d="M512 611.75851141c0 0 0 0 0 0 39.76449463 0 71.99960947-32.23511483 71.99960947-71.99960947 0-39.76449463-32.23511483-71.99960947-71.99960947-71.99960948 0 0 0 0 0 0-39.76449463 0-71.99960947 32.23511483-71.99960947 71.99960948 0 39.76449463 32.23511483 71.99960947 71.99960947 71.99960947 0 0 0 0 0 0z" fill="#333333" p-id="8920"></path><path d="M725.59947509 611.75851141c0 0 0 0 0 0 39.76449463 0 71.99960947-32.23511483 71.99960948-71.99960946 0-39.76449463-32.23511483-71.99960947-71.99960949-71.99960948 0 0 0 0 0 0-39.76449463 0-71.99960947 32.23511483-71.99960945 71.99960947 0 39.76449463 32.23511483 71.99960947 71.99960946 71.99960947 0 0 0 0 0 0z" fill="#333333" p-id="8921"></path></svg>