<svg class="icon" viewBox="0 0 1024 1024" version="1.1" xmlns="http://www.w3.org/2000/svg" p-id="3159" height="128" width="128"><path d="M588.096 752H211.904c-19.712 0-35.904-17.216-35.904-38.336 0-21.056 16.128-38.336 35.904-38.336H588.16c19.712 0 35.904 17.216 35.904 38.336-0.064 21.12-16.192 38.336-35.968 38.336zM467.264 508.672h-255.36c-19.712 0-35.904-17.216-35.904-38.336 0-21.056 16.128-38.336 35.904-38.336h255.424c19.712 0 35.904 17.216 35.904 38.336-0.064 21.056-16.192 38.336-35.968 38.336zM816 268.416v647.168c0 50.816-49.344 92.416-109.632 92.416H157.632c-60.288 0-109.632-41.6-109.632-92.416V268.48c0-50.816 49.344-92.416 109.632-92.416h548.736c60.288-0.064 109.632 41.536 109.632 92.352z m-694.912 12.096v631.04c0 16.512 16.448 30.08 36.544 30.08h548.736c20.096 0 36.544-13.504 36.544-30.08V280.448c0-16.512-16.448-30.08-36.544-30.08H157.632c-20.096 0.064-36.544 13.568-36.544 30.144zM939.328 848a36.864 36.864 0 0 1-36.672-36.864V136.32a46.528 46.528 0 0 0-46.464-46.656H308.672a36.864 36.864 0 0 1 0-73.728h547.392a120.32 120.32 0 0 1 119.872 120.32v674.88a36.8 36.8 0 0 1-36.608 36.864z" p-id="3160"></path></svg>