<svg class="icon" viewBox="0 0 1024 1024" version="1.1" xmlns="http://www.w3.org/2000/svg" p-id="6530" height="128" width="128"><path d="M681.472 367.7952 344.96 367.7952c-26.1888 0-47.488-21.3248-47.488-47.488L297.472 195.328c0-26.1632 21.2992-47.4624 47.488-47.4624l57.3952 0C409.8048 93.3376 456.704 51.2 513.2288 51.2s103.424 42.1376 110.8736 96.6656l57.3952 0c26.1376 0 47.4624 21.2992 47.4624 47.4624l0 124.9792C728.96 346.496 707.6608 367.7952 681.472 367.7952L681.472 367.7952zM344.96 193.8176c-0.8448 0-1.536 0.6912-1.536 1.5104l0 124.9792c0 0.8448 0.6656 1.536 1.536 1.536L681.472 321.8432c0.8448 0 1.536-0.6656 1.536-1.536L683.008 195.328c0-0.8192-0.6656-1.5104-1.536-1.5104l-104.7552 0 2.1504-24.96c0.2048-2.1248 0.2816-4.0192 0.2816-5.7856 0-36.352-29.568-65.92-65.92-65.92s-65.9456 29.568-65.9456 65.92c0 1.7664 0.1024 3.6608 0.2816 5.7856l2.1504 24.96L344.96 193.8176 344.96 193.8176zM318.0544 772.6848l389.1968 0 0 45.952L318.0544 818.6368 318.0544 772.6848 318.0544 772.6848zM318.0544 626.2016l389.1968 0 0 45.9264L318.0544 672.128 318.0544 626.2016 318.0544 626.2016zM318.0544 479.6672l389.1968 0 0 45.952L318.0544 525.6192 318.0544 479.6672 318.0544 479.6672zM810.1632 972.8 213.8368 972.8c-31.7696 0-57.6256-25.856-57.6256-57.6256l0-622.08c0-31.7696 25.856-57.6 57.6256-57.6l81.6896 0L295.5264 195.84c0-26.2656 21.3504-47.616 47.6416-47.616l57.6 0C408.2176 93.4912 455.2704 51.2 512 51.2c56.7296 0 103.7824 42.2912 111.2576 97.024l57.6 0c26.2656 0 47.616 21.3504 47.616 47.616l0 39.6544 81.6896 0c31.7696 0 57.6256 25.856 57.6256 57.6l0 622.08C867.7888 946.944 841.9584 972.8 810.1632 972.8L810.1632 972.8zM213.8368 281.6c-6.3488 0-11.52 5.1712-11.52 11.4944l0 622.08c0 6.3488 5.1712 11.4944 11.52 11.4944l596.352 0c6.3232 0 11.4944-5.1456 11.4944-11.4944l0-622.08c0-6.3488-5.1712-11.4944-11.4944-11.4944l-127.8208 0L682.368 195.84c0-0.8448-0.64-1.536-1.5104-1.536l-105.1136 0 2.1504-25.0368c0.2048-2.1248 0.2816-4.0192 0.2816-5.8112 0-36.48-29.6704-66.1504-66.1504-66.1504s-66.1504 29.696-66.1504 66.1504c0 1.7664 0.0768 3.6608 0.256 5.8112l2.1504 25.0368-105.1136 0c-0.8448 0-1.536 0.6912-1.536 1.536L341.632 281.6 213.8368 281.6 213.8368 281.6zM213.8368 281.6" p-id="6531"></path></svg>