<svg class="icon" viewBox="0 0 1024 1024" version="1.1" xmlns="http://www.w3.org/2000/svg" p-id="2699" height="128" width="128"><path d="M959.804 514.642c-0.019 0.412-0.036 0.786-0.074 1.159l-0.057 0.56c0 0.28-0.056 0.58-0.094 0.841-0.038 0.319-0.073 0.636-0.13 0.973 0 0.036-0.02 0.093-0.02 0.13-1.102 7.214-4.355 13.98-9.345 19.213-9.401 11.623-19.678 22.5-29.995 33.209-55.804 57.767-119.85 109.29-189.972 146.67-44.813 23.883-92.695 43.15-142.35 52.42-54.59 10.167-109.274 9.682-163.582-2.372-43.078-9.549-84.211-25.827-123.401-46.366l1.252-1.308 112.02-75.11c27.585 20.258 61.337 32.33 97.93 32.33 92.752 0 167.935-76.66 167.935-171.225 0-12.615-1.42-24.912-3.98-36.742l148.033-99.293a909.79 909.79 0 0 1 28.948 23.099c34.575 28.706 68.57 60.14 97.126 95.481 5.008 5.214 8.26 11.98 9.361 19.212 0 0.018 0.02 0.075 0.02 0.113 0.056 0.317 0.094 0.653 0.132 0.97 0.036 0.281 0.092 0.561 0.111 0.842 0 0.169 0.019 0.373 0.036 0.56 0.038 0.394 0.059 0.767 0.076 1.159 0.038 0.58 0.075 1.158 0.075 1.739 0.002 0.596-0.018 1.157-0.055 1.736z m-447.818 76.736c-5.514 0-10.879-0.578-16.073-1.608l98.097-65.802c-8.186 38.518-41.787 67.41-82.024 67.41z m368.372-303.112L152.826 773.2l-0.242 0.169v-0.019a20.637 20.637 0 0 1-11.493 3.495c-11.587 0-20.987-9.588-20.987-21.398a21.504 21.504 0 0 1 9.512-17.904L857.13 252.607l0.26-0.169a20.513 20.513 0 0 1 11.476-3.476c11.607 0 21.007 9.57 21.007 21.4 0 7.493-3.795 14.071-9.515 17.885v0.02zM511.986 420.152c7.998 0 15.716 1.234 23.061 3.365L428.615 495.84c4.84-42.591 40.293-75.689 83.371-75.689z m101.928-50.236c-28.295-22.09-63.542-35.358-101.927-35.358-92.753 0-167.956 76.66-167.956 171.207 0 15.118 2.112 29.696 5.718 43.675l-145.678 99.013-7.625 5.178c-8.747-6.747-17.362-13.605-25.828-20.653-34.574-28.723-68.568-60.138-97.144-95.46-12.503-15.474-12.503-33.771 0-49.226 9.401-11.605 19.68-22.52 29.995-33.21 55.804-57.767 119.85-109.291 189.97-146.669 44.816-23.884 92.677-43.152 142.352-52.422 54.59-10.185 109.254-9.66 163.563 2.355 40.498 8.99 79.222 23.96 116.282 42.741l-7.72 4.934-94.002 63.895z" p-id="2700"></path></svg>