<?xml version="1.0" encoding="utf-8"?>
<svg version="1.1" xmlns:xlink="http://www.w3.org/1999/xlink" width="20px" height="20px" xmlns="http://www.w3.org/2000/svg">
  <defs>
    <filter x="55px" y="284px" width="20px" height="20px" filterUnits="userSpaceOnUse" id="filter11">
      <feOffset dx="1" dy="1" in="SourceAlpha" result="shadowOffsetInner" />
      <feGaussianBlur stdDeviation="2.5" in="shadowOffsetInner" result="shadowGaussian" />
      <feComposite in2="shadowGaussian" operator="atop" in="SourceAlpha" result="shadowComposite" />
      <feColorMatrix type="matrix" values="0 0 0 0 0  0 0 0 0 0  0 0 0 0 0  0 0 0 0.698039215686274 0  " in="shadowComposite" />
    </filter>
    <g id="widget12">
      <path d="M 64 288  C 66.8 288  69 290.2  69 293  C 69 295.8  66.8 298  64 298  C 61.2 298  59 295.8  59 293  C 59 290.2  61.2 288  64 288  Z " fill-rule="nonzero" fill="#009dd9" stroke="none" />
      <path d="M 64 288.5  C 66.52 288.5  68.5 290.48  68.5 293  C 68.5 295.52  66.52 297.5  64 297.5  C 61.48 297.5  59.5 295.52  59.5 293  C 59.5 290.48  61.48 288.5  64 288.5  Z " stroke-width="1" stroke="#ffffff" fill="none" />
    </g>
  </defs>
  <g transform="matrix(1 0 0 1 -55 -284 )">
    <use xlink:href="#widget12" filter="url(#filter11)" />
    <use xlink:href="#widget12" />
  </g>
</svg>