<svg class="icon" viewBox="0 0 1433 1024" version="1.1" xmlns="http://www.w3.org/2000/svg" p-id="7449" height="128" width="128"><path d="M1296.852910580046 304.5313628450443c12.820603877490084-19.226615693133297 8.544209169592172-44.866107398872735-8.544209169592172-59.82147653183032-19.22833174237403-14.95536913295758-44.86782344811346-10.682406523541127-59.823192581071055 8.545925218832902-2.1364813047082256 2.1364813047082256-239.28590612732128 282.01724827072644-521.3048704472884 282.01724827072644-273.4713230518936 0-521.3048704472884-282.01724827072644-523.4430678012375-284.1537295754347-14.95536913295758-17.091850437665805-42.72791004492379-19.226615693133297-59.82147653183032-4.272962609416451-17.091850437665805 14.95536913295758-19.22833174237403 42.72962609416451-4.272962609416451 59.82147653183032 4.272962609416451 6.409443914124677 55.54851392241387 64.09443914124677 136.73480350132644 128.19059433173425l-110.67831183008974 111.51574385956572c-17.091850437665805 17.093566486906532-14.95536913295758 44.86782344811346 2.1364813047082256 59.823192581071055 4.272962609416451 8.544209169592172 14.95536913295758 12.818887828249354 25.637775656498707 12.818887828249354s21.364813047082254-4.272962609416451 29.91073826591516-12.818887828249354l119.22252099968186-120.06338512763934c55.54851392241387 38.45666348474806 121.77943436836883 74.7768456647879 194.42151477768923 100.4146213212866l-46.58215663960222 151.69188868352475c-6.409443914124677 23.49957830254975 6.409443914124677 47.002588703580976 29.90902221667443 53.412032617705655h12.818887828249354c19.22833174237403 0 36.32189822928056-12.820603877490084 40.59314478945627-32.04721957062338l46.58215663960222-151.69188868352475c34.18370087533161 6.407727864883946 70.50559910461216 10.682406523541127 106.825781284652 10.682406523541127 36.32189822928056 0 72.64208040932039-4.272962609416451 106.82406523541131-10.682406523541127l46.58387268884297 149.5536913295758c4.2712465601757215 19.22833174237403 23.49957830254975 32.04721957062338 40.59142874021555 32.04721957062338 4.272962609416451 0 8.545925218832902 0 10.684122572781856-2.1364813047082256 23.501294351790488-6.411159963365407 36.32018218003983-29.91073826591516 29.91245431515588-53.412032617705655l-46.58215663960222-149.55540737881657c72.64036436007966-25.636059607257977 138.87128480603465-61.956241787297806 194.41979872844854-100.4146213212866l117.08603969497365 117.92861987217185c8.544209169592172 8.545925218832902 19.226615693133297 12.820603877490084 29.91073826591516 12.820603877490084 10.682406523541127 0 21.363096997841524-4.272962609416451 29.91073826591516-12.820603877490084 17.093566486906532-17.091850437665805 17.093566486906532-42.72791004492379 2.1364813047082256-59.819760482589594L1157.9764776262896 430.58547587207045c87.59916559151871-64.09443914124677 138.87643295375685-126.05411302702605 138.87643295375685-126.05411302702605z" p-id="7450"></path></svg>