<svg class="icon" viewBox="0 0 1024 1024" version="1.1" xmlns="http://www.w3.org/2000/svg" p-id="7059" height="128" width="128"><path d="M916.49024 527.68a363.904 363.904 0 0 1-108.32 259.168 372.576 372.576 0 0 1-261.888 107.904v78.784a448.576 448.576 0 0 0 317.056-130.752 441.504 441.504 0 0 0 131.936-315.072H916.49024zM28.77824 493.856H107.53024a364.288 364.288 0 0 1 108.32-259.52 370.592 370.592 0 0 1 261.888-107.52V48a451.328 451.328 0 0 0-317.44 130.368A443.84 443.84 0 0 0 28.81024 493.824z m885.344-440.32h-258.368a109.504 109.504 0 0 0-109.472 109.888v186.688a109.504 109.504 0 0 0 109.472 109.888h258.368A109.888 109.888 0 0 0 1024.01024 350.08V163.392a109.888 109.888 0 0 0-109.888-109.888z m31.104 296.576a31.104 31.104 0 0 1-31.104 31.104h-258.368a31.104 31.104 0 0 1-30.72-31.104V163.392a30.72 30.72 0 0 1 30.72-31.104h258.368a31.104 31.104 0 0 1 31.104 31.104v186.688z m-576.96 209.92H109.89824A109.504 109.504 0 0 0 0.01024 671.04v187.104a109.504 109.504 0 0 0 109.888 109.472h258.368a109.12 109.12 0 0 0 109.472-109.472V671.04a109.12 109.12 0 0 0-109.472-111.072z m30.72 296.544c0 16.96-13.76 30.72-30.72 30.72H109.89824a30.72 30.72 0 0 1-31.104-29.12V671.04a30.72 30.72 0 0 1 31.104-32.32h258.368c16.96 0 30.72 13.76 30.72 30.72v187.072z" p-id="7060"></path></svg>