<?xml version="1.0" encoding="utf-8"?>
<svg version="1.1" xmlns:xlink="http://www.w3.org/1999/xlink" width="100px" height="34px" xmlns="http://www.w3.org/2000/svg">
  <defs>
    <mask fill="white" id="clip4">
      <path d="M 0 29  L 0 5  C 0 2.19999999999999  2.20000000000005 0  5 0  L 41.6363636363636 0  L 42.8484848484837 0  L 95 0  C 97.8 0  100 2.19999999999999  100 5  L 100 29  C 100 31.8  97.8 34  95 34  L 5 34  C 2.20000000000005 34  0 31.8  0 29  Z " fill-rule="evenodd" />
    </mask>
  </defs>
  <g transform="matrix(1 0 0 1 -872 -196 )">
    <path d="M 0 29  L 0 5  C 0 2.19999999999999  2.20000000000005 0  5 0  L 41.6363636363636 0  L 42.8484848484837 0  L 95 0  C 97.8 0  100 2.19999999999999  100 5  L 100 29  C 100 31.8  97.8 34  95 34  L 5 34  C 2.20000000000005 34  0 31.8  0 29  Z " fill-rule="nonzero" fill="#ffffff" stroke="none" transform="matrix(1 0 0 1 872 196 )" />
    <path d="M 0 29  L 0 5  C 0 2.19999999999999  2.20000000000005 0  5 0  L 41.6363636363636 0  L 42.8484848484837 0  L 95 0  C 97.8 0  100 2.19999999999999  100 5  L 100 29  C 100 31.8  97.8 34  95 34  L 5 34  C 2.20000000000005 34  0 31.8  0 29  Z " stroke-width="2" stroke="#797979" fill="none" transform="matrix(1 0 0 1 872 196 )" mask="url(#clip4)" />
  </g>
</svg>