<svg class="icon" viewBox="0 0 1024 1024" version="1.1" xmlns="http://www.w3.org/2000/svg" p-id="2303" height="128" width="128"><path d="M649.728 580.608H185.856c-15.36 0-25.6 10.24-25.6 25.6s10.24 25.6 25.6 25.6h463.36c15.36 0 25.6-10.24 25.6-25.6 0-5.12-5.12-15.36-5.12-20.48-9.728-5.12-14.848-5.12-19.968-5.12zM471.04 774.144H190.976c-15.36 0-25.6 10.24-25.6 25.6s10.24 25.6 25.6 25.6H471.04c15.36 0 25.6-10.24 25.6-25.6 0-5.12-5.12-15.36-5.12-20.48-10.24-5.12-15.36-5.12-20.48-5.12z m178.688-392.192H185.856c-15.36 0-25.6 10.24-25.6 25.6s10.24 25.6 25.6 25.6h463.36c15.36 0 25.6-10.24 25.6-25.6 0-5.12-5.12-15.36-5.12-20.48-9.728 0-14.848-5.12-19.968-5.12zM893.952 0H287.744c-15.36 0-112.128 0-112.128 112.128v81.408H114.688c-15.36 0-112.128 0-112.128 112.128v606.208C2.56 1024 114.688 1024 114.688 1024h606.208c30.72 0 55.808-10.24 71.168-20.48h5.12l10.24-10.24v-5.12c25.6-30.72 25.6-71.168 25.6-71.168v-81.408h60.928c30.72 0 55.808-10.24 71.168-20.48h5.12l10.24-10.24v-5.12c25.6-30.72 25.6-71.168 25.6-71.168V122.368C1000.96 0 909.312 0 893.952 0z m-107.008 870.912s0 35.84-20.48 66.048v5.12l-10.24 10.24h-5.12c-15.36 10.24-35.84 20.48-60.928 20.48H150.528s-96.768 0-96.768-96.768V341.504c0-96.768 86.528-96.768 96.768-96.768h540.16c15.36 0 96.768 0 96.768 96.768v529.408h-0.512z m168.448-188.416s0 35.84-20.48 66.048v5.12l-10.24 10.24h-5.12c-15.36 10.24-35.84 20.48-60.928 20.48h-25.6V305.664c0-112.128-96.768-112.128-112.128-112.128H221.696v-46.08C221.696 51.2 308.224 51.2 318.464 51.2h540.16c15.36 0 96.768 0 96.768 96.768v534.528z" p-id="2304"></path></svg>