<svg class="icon" viewBox="0 0 1024 1024" version="1.1" xmlns="http://www.w3.org/2000/svg" p-id="4649" height="128" width="128"><path d="M163.328 239.872l0.512-76.8 76.8 0.4608-0.512 76.8zM373.76 240.64V25.6H25.6v348.16h138.24v61.44h76.8V378.88h138.24V302.08h61.44V240.64H373.76zM302.08 302.08H102.4V102.4h199.68v199.68zM235.52 788.48v71.68H158.72v-76.8zM860.16 168.96v76.8h-71.68V168.96zM512 506.88v81.92h76.8v-71.68h61.44V440.32h-61.44V378.88H512zM512 788.48v76.8h71.68v-138.24h61.44v-76.8H512zM585.984 926.5664l0.3072-61.44 61.44 0.3584-0.3072 61.44zM432.0256 999.8336l0.4096-76.8 153.6 0.8704-0.4096 76.8zM721.92 727.04h-76.8v138.24h138.24v-76.8h-61.44zM783.36 1003.52h209.92v-76.8h-133.12v-61.44h-76.8zM859.4944 517.632l0.4096-76.8 138.24 0.768-0.4096 76.8zM917.6576 864.512l0.4096-76.8 76.8 0.4608-0.4096 76.8zM436.1216 379.2896l0.512-76.8 76.8 0.512-0.512 76.8zM860.16 168.96v76.8h-71.68V168.96zM860.16 245.76h-71.68V168.96h71.68zM650.24 30.72v76.8L512 102.4v61.44h138.24v76.8h-61.44v61.44h61.44v76.8h76.8v61.44h61.44V378.88h215.04l5.12-348.16h-358.4zM921.6 307.2h-199.68V107.52H921.6V307.2zM725.1968 654.336l0.3584-61.44 61.44 0.3584-0.3584 61.44zM860.16 727.04h-76.8v61.44H921.6v-133.12h76.8v-61.44h-138.24zM435.2 243.5584l0.512-76.8 76.8 0.4608-0.512 76.8zM238.7968 589.0048l0.4608-76.8 61.44 0.3584-0.512 76.8zM435.5072 653.2096l0.3584-61.44 76.8 0.4608-0.3584 61.44zM649.0624 589.312l0.4608-76.8 76.8 0.512-0.512 76.8zM784.9984 593.7664l0.4096-76.8 76.8 0.4608-0.4096 76.8zM435.2 440.32H296.96V512h76.8v76.8h61.44zM235.52 788.48v71.68H158.72v-76.8zM235.52 860.16H158.72v-76.8l76.8 5.12zM435.2 727.04v-76.8H163.84V512H25.6v76.8H102.4v61.44H25.6v348.16h348.16V921.6h61.44v-61.44H373.76v-138.24l61.44 5.12zM296.96 921.6H97.28v-199.68h199.68V921.6z" p-id="4650"></path></svg>