<svg class="icon" viewBox="0 0 1024 1024" version="1.1" xmlns="http://www.w3.org/2000/svg" p-id="5305" height="128" width="128"><path d="M730.7 537.4c0 77.5 46.8 143.7 112.8 170.5-24.6 70-61.9 138.1-111.3 181.1-16 19.4-38.3 33-63.7 37.5l-5.1 1.8c-7.5 2.2-15 1.9-22.3-0.5-11.5-0.9-21.9-1.8-31.5-2.7-28.9-19.8-63.6-31.5-100.9-31.5-37.8 0-72.8 11.9-101.9 32.2-7.4 0.6-15.3 1.3-23.6 2-7.4 2.4-14.9 2.7-22.6 0.5l-5.1-1.8c-25.4-4.5-47.7-18.2-63.7-37.5-99.6-86.6-150.1-275.3-146.6-375.8 4.2-119.3 108.3-220.5 208.6-221.4 85.5-0.7 105.5 27.7 154.8 27.7 46.8 0 75.6-27.7 161.5-27.7 57.1 0 115.3 33 155.7 83.4-56.5 30.8-95.1 91.9-95.1 162.2M489.3 291.3c-0.5-5.5-0.8-11.1-0.8-16.7 0-97.5 74.1-176.9 167.4-182.8 0.5 5.5 0.8 11.1 0.8 16.7 0 97.5-74 177-167.4 182.8" fill="" p-id="5306"></path></svg>