<svg class="icon" viewBox="0 0 1024 1024" version="1.1" xmlns="http://www.w3.org/2000/svg" p-id="5413" height="128" width="128"><path d="M881.152 512c0-52.224 32.768-96.768 78.848-114.688-10.752-43.008-28.16-83.968-50.176-121.344-45.056 19.968-99.84 11.776-136.704-25.088-36.864-36.864-45.056-91.648-25.088-136.704C710.656 92.16 669.696 74.752 626.688 64c-17.92 46.08-61.952 78.848-114.688 78.848-52.224 0-96.768-32.768-114.688-78.848-43.008 10.752-83.968 28.16-121.344 50.176 19.968 45.056 11.776 99.84-25.088 136.704s-91.648 45.056-136.704 25.088C91.648 313.344 74.752 354.304 64 397.312c46.08 17.92 78.848 61.952 78.848 114.688 0 52.224-32.768 96.768-78.848 114.688 10.752 43.008 28.16 83.968 50.176 121.344 45.056-19.968 99.84-11.776 136.704 25.088 36.864 36.864 45.056 91.648 25.088 136.704 37.376 22.016 78.336 39.424 121.344 50.176 17.92-46.08 61.952-78.848 114.688-78.848 52.224 0 96.768 32.768 114.688 78.848 43.008-10.752 83.968-28.16 121.344-50.176-19.968-45.056-11.776-99.84 25.088-136.704s91.648-45.056 136.704-25.088c22.528-37.376 39.424-78.336 50.176-121.344-46.08-17.92-78.848-62.464-78.848-114.688zM512 634.88c-68.096 0-122.88-55.296-122.88-122.88S444.416 389.12 512 389.12 634.88 444.416 634.88 512 580.096 634.88 512 634.88z" p-id="5414"></path></svg>