<svg class="icon" viewBox="0 0 1024 1024" version="1.1" xmlns="http://www.w3.org/2000/svg" p-id="6320" height="128" width="128"><path d="M529.92 961.536c-8.192 0-16.384-3.584-22.528-9.216l-301.056-302.08c-12.288-12.288-12.288-32.256 0-44.544 12.288-12.288 32.256-12.288 44.544 0l279.04 279.552 279.552-279.552c12.288-12.288 32.256-12.288 44.544 0 12.288 12.288 12.288 32.256 0 44.544l-302.08 302.08c-5.632 5.632-13.824 9.216-22.016 9.216zM529.92 429.568c-8.192 0-15.872-3.072-22.016-9.216L206.848 119.296c-12.288-12.288-12.288-32.256 0-44.544 12.288-12.288 32.256-12.288 44.544 0l279.04 279.04 280.064-279.04c12.288-12.288 32.256-12.288 44.544 0 12.288 12.288 12.288 32.256 0 44.544l-302.08 301.056c-7.168 6.656-14.848 9.216-23.04 9.216z" fill="#515151" p-id="6321"></path></svg>