<svg class="icon" viewBox="0 0 1024 1024" version="1.1" xmlns="http://www.w3.org/2000/svg" p-id="4285" height="128" width="128"><path d="M997.7856 223.232H26.2144C11.776 223.232 0 211.6608 0 197.12S11.776 171.008 26.2144 171.008h971.4688c14.5408 0 26.2144 11.5712 26.2144 26.112S1012.224 223.232 997.7856 223.232zM787.6608 537.6H26.2144C11.776 537.6 0 526.5408 0 512s11.776-25.6 26.2144-25.6h761.4464c14.5408 0 26.2144 11.0592 26.2144 25.6s-11.6736 25.6-26.2144 25.6zM577.6384 852.992H26.2144C11.776 852.992 0 841.4208 0 826.88S11.776 800.768 26.2144 800.768h551.424c14.5408 0 26.2144 11.5712 26.2144 26.112S592.1792 852.992 577.6384 852.992z" fill="#00ACB4" p-id="4286"></path></svg>