<svg class="icon" viewBox="0 0 1024 1024" version="1.1" xmlns="http://www.w3.org/2000/svg" p-id="8062" height="128" width="128"><path d="M512 0c282.784 0 512 229.216 512 512s-229.216 512-512 512S0 794.784 0 512 229.216 0 512 0z m0 78.784C272.736 78.784 78.784 272.704 78.784 512c0 239.264 193.92 433.216 433.216 433.216 239.264 0 433.216-193.92 433.216-433.216 0-239.264-193.92-433.216-433.216-433.216z m0 623.104a59.072 59.072 0 1 1 0 118.176 59.072 59.072 0 0 1 0-118.176z m0-497.888c32.64 0 59.072 26.464 59.072 59.072v341.184a59.072 59.072 0 1 1-118.144 0V263.04c0-32.64 26.432-59.072 59.072-59.072z" fill="#FF7F2D" p-id="8063"></path></svg>